<?xml version="1.0" encoding="UTF-8" standalone="no"?>
<!DOCTYPE svg PUBLIC "-//W3C//DTD SVG 1.1//EN" "http://www.w3.org/Graphics/SVG/1.1/DTD/svg11.dtd">
<!-- Created with Vectornator (http://vectornator.io/) -->
<svg height="100%" stroke-miterlimit="10" style="fill-rule:nonzero;clip-rule:evenodd;stroke-linecap:round;stroke-linejoin:round;" version="1.1" viewBox="0 0 400 588.551" width="100%" xml:space="preserve" xmlns="http://www.w3.org/2000/svg" xmlns:vectornator="http://vectornator.io" xmlns:xlink="http://www.w3.org/1999/xlink">
<defs/>
<g id="svgg" vectornator:layerName="svgg">
<path d="M288.003 43.0221C286.541 43.3061 285.368 44.1801 285.033 45.2371C284.916 45.6071 284.666 45.8151 284.479 45.7001C284.291 45.5841 284.161 45.6221 284.189 45.7841C284.314 46.5051 284.126 46.9971 283.802 46.7971C283.607 46.6771 283.525 46.7881 283.619 47.0441C283.849 47.6691 278.646 53.9821 278.025 53.8311C277.756 53.7651 277.658 53.8331 277.806 53.9811C278.127 54.3021 277.023 55.6171 276.635 55.3771C276.486 55.2851 276.387 55.4321 276.414 55.7031C276.441 55.9751 274.934 57.7891 273.064 59.7361C269.237 63.7201 267.03 66.1961 266.97 66.5751C266.873 67.1841 260.777 75.0501 260.47 74.9611C260.284 74.9071 260.231 75.0241 260.352 75.2211C260.561 75.5581 259.302 77.6401 257.052 80.6811L256.07 82.0091L251.955 82.0231C246.496 82.0431 241.994 82.6141 238.717 83.7041C237.241 84.1951 235.763 84.6181 235.432 84.6431C235.102 84.6681 234.91 84.8161 235.006 84.9721C235.162 85.2241 234.351 85.4141 233.619 85.2981C233.471 85.2751 233.35 85.3951 233.35 85.5641C233.35 85.8911 230.007 88.4331 226.312 90.9161C225.097 91.7331 223.092 93.5301 221.856 94.9111C220.62 96.2911 219.499 97.4201 219.365 97.4201C219.008 97.4201 217.14 89.6581 217.397 89.2431C217.517 89.0501 217.382 88.6591 217.099 88.3761C216.483 87.7601 215.404 83.8481 215.713 83.3491C215.843 83.1381 215.741 83.1151 215.456 83.2911C215.109 83.5061 215.045 83.4201 215.217 82.9701C215.347 82.6331 215.321 82.4381 215.16 82.5381C214.804 82.7581 213.067 77.1661 212.74 74.7431C212.284 71.3741 210.356 70.8381 207.402 73.2591C206.572 73.9391 205.783 74.3851 205.649 74.2511C205.515 74.1171 205.5 74.2541 205.616 74.5561C205.74 74.8801 205.492 75.3881 205.009 75.7971L204.191 76.4901L204.904 75.5961L205.617 74.7011L204.636 75.5691C203.656 76.4351 203.335 76.9091 204.012 76.4901C204.575 76.1421 204.453 76.4451 203.166 78.5821C202.504 79.6821 201.834 80.4661 201.677 80.3251C201.521 80.1841 201.508 80.2681 201.649 80.5131C201.793 80.7631 201.217 82.2551 200.335 83.9121C197.226 89.7601 194.183 99.7851 193.26 107.215C192.583 112.669 193.018 131.336 193.957 137.1L194.681 141.538L193.828 142.552C193.358 143.109 192.147 145.096 191.136 146.966C190.125 148.837 189.054 150.61 188.758 150.906C188.461 151.203 188.312 151.445 188.426 151.445C188.541 151.445 187.805 153.096 186.792 155.113C184.838 159.003 181.862 167.606 181.129 171.481C180.887 172.76 180.598 174.048 180.487 174.344C180.376 174.639 180.313 175.007 180.347 175.162C180.38 175.318 180.25 176.445 180.057 177.667C179.394 181.875 178.94 189.5 179.013 195.243C179.17 207.68 179.096 209.433 178.234 213.616C177.139 218.929 177.105 219.066 176.866 219.066C176.743 219.066 176.621 219.429 176.596 219.871C176.571 220.314 176.451 221.079 176.328 221.571C176.205 222.063 175.748 224.425 175.311 226.821C174.875 229.216 174.425 231.119 174.311 231.049C174.197 230.978 174.103 231.514 174.102 232.239C174.101 232.963 173.746 236.564 173.314 240.241C172.881 243.917 172.527 247.499 172.527 248.201C172.527 248.903 172.389 249.478 172.219 249.478C172.05 249.478 171.983 249.854 172.071 250.313C172.159 250.772 171.975 254.45 171.663 258.485C171.352 262.521 171.096 268.594 171.096 271.982C171.096 276.395 170.984 278.073 170.7 277.898C170.441 277.738 170.378 277.886 170.518 278.325C170.795 279.198 170.891 283.434 170.639 283.685C170.533 283.792 170.597 284.39 170.78 285.014C171.133 286.215 171.29 307.194 170.95 307.744C170.84 307.921 170.657 311.024 170.542 314.639C170.427 318.255 170.181 321.267 169.997 321.333C169.812 321.399 169.741 321.583 169.839 321.742C169.937 321.9 170.098 329.816 170.196 339.332C170.295 348.848 170.469 357.438 170.585 358.422C171.277 364.335 168.612 394.519 167.461 393.807C167.301 393.708 167.267 393.882 167.387 394.194C167.67 394.932 166.067 403.682 165.649 403.682C165.473 403.682 165.427 403.84 165.547 404.033C165.861 404.542 165.352 406.932 164.979 406.701C164.806 406.594 164.756 406.745 164.868 407.036C165.052 407.516 164.764 409.388 163.016 419.066C162.238 423.376 160.136 430.489 159.386 431.346C159.038 431.744 158.926 431.969 159.139 431.846C159.402 431.693 159.475 432.222 159.368 433.507C159.247 434.97 159.461 436.117 160.324 438.631C161.565 442.246 161.611 442.472 161.023 442.109C160.765 441.95 160.707 442.011 160.869 442.273C161.011 442.503 161.257 442.612 161.415 442.514C161.573 442.416 161.99 443.098 162.342 444.029C162.694 444.959 163.947 447.734 165.126 450.193C166.306 452.653 167.273 454.867 167.275 455.113C167.278 455.359 167.404 455.56 167.555 455.56C167.918 455.56 173.267 466.133 173.052 466.425C172.96 466.549 172.989 466.574 173.115 466.481C173.31 466.336 177.536 472.891 177.536 473.338C177.536 473.422 177.351 473.376 177.123 473.236C176.865 473.077 176.807 473.138 176.969 473.4C177.112 473.63 177.365 473.734 177.533 473.63C177.907 473.399 180.267 476.985 180.101 477.53C180.035 477.745 180.097 477.806 180.237 477.665C180.616 477.286 181.92 479.096 181.619 479.583C181.472 479.821 181.516 479.904 181.723 479.776C182.212 479.474 184.439 482.293 184.119 482.81C183.969 483.053 184.024 483.122 184.255 482.98C184.724 482.689 185.826 484.152 185.516 484.654C185.396 484.849 185.461 484.907 185.662 484.783C186.175 484.466 187.327 485.829 186.997 486.362C186.836 486.623 186.877 486.705 187.101 486.567C187.489 486.327 191.021 490.204 190.864 490.698C190.815 490.853 190.921 490.94 191.101 490.891C191.645 490.742 196.527 495.297 196.269 495.714C196.135 495.931 196.196 495.997 196.411 495.865C196.916 495.553 202.643 500.251 202.345 500.733C202.213 500.946 202.283 501.003 202.507 500.865C202.723 500.732 205.606 502.531 208.912 504.865C212.219 507.198 216.092 509.883 217.519 510.83C218.945 511.777 220.112 512.699 220.112 512.879C220.112 513.058 220.245 513.123 220.406 513.024C220.568 512.924 221.252 513.184 221.927 513.602C225.011 515.513 228.519 517.341 232.724 519.227C235.232 520.353 237.164 521.407 237.017 521.569C236.87 521.731 236.927 521.763 237.144 521.639C237.361 521.516 239.052 521.895 240.901 522.483C244.476 523.619 250.56 524.97 252.101 524.97C252.611 524.97 253.028 525.09 253.028 525.238C253.027 525.58 263.71 525.152 264.626 524.774C265.145 524.559 265.239 524.605 265.017 524.964C264.802 525.312 264.858 525.352 265.227 525.114C265.81 524.739 270.483 523.081 273.6 522.144C275.242 521.65 275.955 521.209 276.641 520.265C277.133 519.587 278.164 518.396 278.93 517.618C280.347 516.181 283.798 511.199 283.798 510.591C283.798 510.408 283.944 510.349 284.122 510.459C284.3 510.569 284.362 510.337 284.259 509.943C284.156 509.549 284.225 509.227 284.412 509.227C284.599 509.227 284.768 509.026 284.787 508.78C284.807 508.534 285.247 506.803 285.766 504.934C286.386 502.698 286.771 500.249 286.891 497.778C286.992 495.712 287.164 493.78 287.274 493.485C287.385 493.19 287.505 492.707 287.541 492.412C287.578 492.116 287.957 490.828 288.384 489.549C289.583 485.956 295.297 458.024 295.976 452.436C296.705 446.444 296.801 434.766 296.181 427.768C295.507 420.17 295.453 417.921 295.962 418.708C296.474 419.5 296.394 418.972 295.821 417.78C295.19 416.464 294.687 407.188 294.776 398.494C295.071 369.635 295.043 366.65 294.432 361.642C294.096 358.887 293.655 353.494 293.454 349.657C293.252 345.819 292.765 340.667 292.371 338.208C291.977 335.748 291.413 331.723 291.118 329.263C290.447 323.677 289.699 319.87 288.56 316.248C288.072 314.698 287.752 313.128 287.849 312.759C287.945 312.39 287.894 312.169 287.735 312.267C287.38 312.487 286.591 310.343 286.864 309.902C286.972 309.728 286.911 309.585 286.73 309.585C285.545 309.585 284.849 279.173 285.915 273.986C286.616 270.581 287.465 268.096 287.849 268.333C288.044 268.453 288.089 268.369 287.951 268.145C287.547 267.492 288.442 266.076 288.868 266.692C289.116 267.05 289.15 266.971 288.993 266.409C288.848 265.891 288.97 265.522 289.36 265.304C289.681 265.124 289.93 264.83 289.912 264.651C289.894 264.472 290.027 264.326 290.208 264.326C290.388 264.326 290.67 264.179 290.834 264C291.007 263.811 290.945 263.782 290.685 263.932C290.439 264.073 290.238 264.038 290.238 263.854C290.238 263.342 291.163 262.687 291.463 262.987C291.609 263.133 291.675 263.011 291.609 262.716C291.538 262.395 291.748 262.178 292.131 262.176C292.484 262.174 292.889 261.983 293.033 261.751C293.293 261.33 294.977 260.569 295.649 260.569C295.844 260.569 295.89 260.755 295.749 260.982C295.586 261.246 295.652 261.298 295.931 261.125C296.171 260.977 296.276 260.763 296.163 260.651C296.051 260.538 297.092 260.087 298.477 259.648C299.862 259.208 301.97 258.269 303.16 257.56C304.35 256.851 305.497 256.377 305.708 256.507C305.928 256.643 305.987 256.576 305.846 256.349C305.566 255.895 306.828 255.096 307.215 255.483C307.356 255.624 307.417 255.578 307.352 255.381C307.286 255.184 307.393 254.95 307.59 254.861C307.787 254.771 308.489 254.047 309.149 253.251C310.556 251.556 310.855 251.258 310.454 251.948C310.257 252.289 310.298 252.367 310.582 252.192C310.812 252.049 310.905 251.778 310.788 251.589C310.671 251.4 311.031 250.711 311.587 250.059C312.144 249.406 313.306 247.881 314.171 246.671C315.035 245.46 315.961 244.469 316.228 244.469C316.495 244.469 316.714 244.311 316.714 244.118C316.714 243.612 319.554 242.237 320.138 242.461C320.409 242.565 320.755 242.441 320.908 242.186C321.914 240.506 332.345 240.039 339.26 241.365C350.714 243.562 360.242 243.501 364.747 241.203C365.498 240.82 366.308 240.618 366.547 240.756C366.786 240.893 366.862 240.873 366.715 240.712C366.349 240.307 368.863 238.649 369.369 238.961C369.619 239.116 369.677 239.053 369.52 238.8C369.38 238.572 369.407 238.386 369.58 238.386C369.753 238.386 370.546 237.829 371.343 237.147C372.139 236.465 372.893 235.982 373.017 236.073C373.141 236.165 373.168 236.138 373.077 236.014C372.805 235.645 373.607 234.413 373.972 234.638C374.162 234.756 374.206 234.579 374.073 234.232C373.9 233.782 373.964 233.696 374.311 233.911C374.613 234.097 374.699 234.065 374.548 233.821C374.418 233.61 374.489 232.981 374.705 232.424C374.922 231.866 375.205 229.961 375.334 228.19L375.569 224.97L378.52 223.487C380.144 222.671 381.477 222.108 381.483 222.235C381.489 222.361 381.659 222.181 381.861 221.834C382.064 221.486 383.174 220.725 384.329 220.142C385.484 219.559 386.532 218.915 386.659 218.711C386.785 218.506 387.042 218.434 387.23 218.55C387.418 218.667 387.536 218.629 387.492 218.467C387.354 217.96 389.585 214.777 389.887 215.051C390.045 215.193 390.053 215.101 389.906 214.845C389.758 214.59 389.82 213.621 390.043 212.692C390.424 211.103 390.772 202.85 390.443 203.178C390.19 203.431 388.961 198.18 389.155 197.674C389.265 197.386 389.175 197.303 388.921 197.461C388.645 197.631 388.581 197.52 388.73 197.133C388.853 196.812 388.787 196.446 388.583 196.32C388.379 196.193 388.312 195.692 388.434 195.205C388.571 194.659 388.52 194.404 388.301 194.539C388.105 194.66 387.777 194.135 387.572 193.372C387.367 192.61 386.727 191.283 386.15 190.424C385.573 189.565 385.182 188.731 385.281 188.571C385.38 188.41 385.328 188.309 385.166 188.345C384.578 188.476 383.628 187.855 383.855 187.489C383.983 187.282 383.926 187.213 383.728 187.335C383.358 187.564 381.83 186.351 381.83 185.828C381.83 185.666 382.296 184.403 382.865 183.022C386.865 173.323 382.8 168.094 372.506 169.696C369.569 170.153 365.056 169.419 365.581 168.57C365.683 168.405 365.512 168.367 365.201 168.487C364.532 168.743 360.363 167.879 360.363 167.483C360.363 167.333 360.14 167.296 359.867 167.401C359.019 167.726 354.266 165.9 350.524 163.812C346.698 161.677 344.169 160.748 342.182 160.748C340.657 160.748 338.18 160.034 338.18 159.594C338.18 159.415 337.838 159.377 337.42 159.51C336.912 159.671 336.74 159.621 336.902 159.359C337.047 159.124 336.947 159.043 336.651 159.157C335.802 159.482 334.232 158.692 334.474 158.061C334.607 157.715 334.518 157.539 334.244 157.603C333.315 157.819 332.69 154.782 333.123 152.156C333.615 149.176 334.921 145.655 335.42 145.963C335.631 146.094 335.678 146.013 335.529 145.773C335.232 145.293 335.607 143.847 335.97 144.072C336.103 144.154 336.236 143.875 336.264 143.451C336.293 143.027 336.917 140.748 337.651 138.386C339.825 131.39 339.526 125.996 336.72 121.579C336.098 120.6 335.558 119.589 335.521 119.333C335.483 119.077 335.335 118.879 335.192 118.893C335.049 118.908 334.013 118.096 332.889 117.091C331.765 116.085 329.929 114.647 328.808 113.895C327.687 113.143 326.882 112.416 327.019 112.279C327.156 112.142 327.107 112.075 326.91 112.131C326.244 112.318 324.929 111.685 325.171 111.293C325.314 111.062 325.244 111.009 324.999 111.16C324.441 111.505 320.244 109.593 320.533 109.126C320.662 108.917 320.585 108.867 320.352 109.011C319.864 109.313 313.41 106.282 312.408 105.28C312.021 104.893 311.62 104.583 311.517 104.591C311.089 104.625 309.251 103.352 309.395 103.12C309.48 102.981 309.27 102.89 308.928 102.917C308.584 102.944 308.35 102.754 308.404 102.492C308.458 102.232 308.33 102.125 308.119 102.255C307.782 102.464 303.118 99.7311 303.118 99.3251C303.118 99.2381 303.319 99.2881 303.565 99.4361C303.869 99.6181 303.855 99.5101 303.521 99.0991C302.99 98.4441 302.579 98.2691 302.939 98.8521C303.347 99.5111 302.743 99.2191 300.866 97.8481C299.842 97.0991 298.081 95.9161 296.953 95.2181C295.825 94.5201 295.02 93.8191 295.164 93.6591C295.308 93.5001 295.228 93.4831 294.987 93.6221C294.451 93.9301 290.848 91.5741 291.223 91.1601C291.37 90.9981 291.296 90.9771 291.058 91.1131C290.625 91.3621 284.168 88.3301 283.758 87.6851C283.637 87.4961 283.436 87.3551 283.31 87.3721C282.2 87.5211 282.101 87.3601 282.28 85.7031C282.514 83.5401 283.955 80.6071 284.788 80.5991C285.319 80.5951 285.331 80.5441 284.871 80.2471C284.401 79.9431 284.592 79.7471 285.276 79.8331C285.401 79.8481 285.481 79.5861 285.455 79.2491C285.429 78.9121 285.621 78.6811 285.881 78.7351C286.142 78.7891 286.256 78.6731 286.135 78.4771C286.014 78.2811 286.177 77.7191 286.499 77.2291C286.82 76.7391 287.524 75.2041 288.063 73.8191C288.602 72.4331 289.176 71.4211 289.34 71.5701C289.503 71.7181 289.536 71.6621 289.413 71.4461C289.289 71.2291 289.411 69.8611 289.683 68.4041C289.954 66.9481 290.446 63.5831 290.776 60.9271C291.105 58.2701 291.618 54.6481 291.915 52.8771C292.705 48.1701 292.018 44.8021 290.055 43.7511C289.578 43.4961 289.273 43.1511 289.377 42.9841C289.48 42.8171 289.515 42.6981 289.454 42.7211C289.393 42.7441 288.74 42.8791 288.003 43.0221" fill="#d1ab15" fill-rule="evenodd" opacity="1" stroke="none" vectornator:layerName="path"/>
</g>
<g id="svgg-kopieren" vectornator:layerName="svgg kopieren">
<path d="M223.749 34.4772C222.287 34.7612 221.114 35.6352 220.779 36.6922C220.662 37.0622 220.412 37.2702 220.225 37.1552C220.037 37.0392 219.907 37.0772 219.935 37.2392C220.06 37.9602 219.872 38.4522 219.548 38.2522C219.353 38.1322 219.271 38.2432 219.365 38.4992C219.595 39.1242 214.392 45.4372 213.771 45.2862C213.502 45.2202 213.404 45.2882 213.552 45.4362C213.873 45.7572 212.769 47.0722 212.381 46.8322C212.232 46.7402 212.133 46.8872 212.16 47.1582C212.187 47.4302 210.68 49.2442 208.81 51.1912C204.983 55.1752 202.776 57.6512 202.716 58.0302C202.619 58.6392 196.523 66.5052 196.216 66.4162C196.03 66.3622 195.977 66.4792 196.098 66.6762C196.307 67.0132 195.048 69.0952 192.798 72.1362L191.816 73.4642L187.701 73.4782C182.242 73.4982 177.74 74.0692 174.463 75.1592C172.987 75.6502 171.509 76.0732 171.178 76.0982C170.848 76.1232 170.656 76.2712 170.752 76.4272C170.908 76.6792 170.097 76.8692 169.365 76.7532C169.217 76.7302 169.096 76.8502 169.096 77.0192C169.096 77.3462 165.753 79.8882 162.058 82.3712C160.843 83.1882 158.838 84.9852 157.602 86.3662C156.366 87.7462 155.245 88.8752 155.111 88.8752C154.754 88.8752 152.886 81.1132 153.143 80.6982C153.263 80.5052 153.128 80.1142 152.845 79.8312C152.229 79.2152 151.15 75.3032 151.459 74.8042C151.589 74.5932 151.487 74.5702 151.202 74.7462C150.855 74.9612 150.791 74.8752 150.963 74.4252C151.093 74.0882 151.067 73.8932 150.906 73.9932C150.55 74.2132 148.813 68.6212 148.486 66.1982C148.03 62.8292 146.102 62.2932 143.148 64.7142C142.318 65.3942 141.529 65.8402 141.395 65.7062C141.261 65.5722 141.246 65.7092 141.362 66.0112C141.486 66.3352 141.238 66.8432 140.755 67.2522L139.937 67.9452L140.65 67.0512L141.363 66.1562L140.382 67.0242C139.402 67.8902 139.081 68.3642 139.758 67.9452C140.321 67.5972 140.199 67.9002 138.912 70.0372C138.25 71.1372 137.58 71.9212 137.423 71.7802C137.267 71.6392 137.254 71.7232 137.395 71.9682C137.539 72.2182 136.963 73.7102 136.081 75.3672C132.972 81.2152 129.929 91.2402 129.006 98.6702C128.329 104.124 128.764 122.791 129.703 128.555L130.427 132.993L129.574 134.007C129.104 134.564 127.893 136.551 126.882 138.421C125.871 140.292 124.8 142.065 124.504 142.361C124.207 142.658 124.058 142.9 124.172 142.9C124.287 142.9 123.551 144.551 122.538 146.568C120.584 150.458 117.608 159.061 116.875 162.936C116.633 164.215 116.344 165.503 116.233 165.799C116.122 166.094 116.059 166.462 116.093 166.617C116.126 166.773 115.996 167.9 115.803 169.122C115.14 173.33 114.686 180.955 114.759 186.698C114.916 199.135 114.842 200.888 113.98 205.071C112.885 210.384 112.851 210.521 112.612 210.521C112.489 210.521 112.367 210.884 112.342 211.326C112.317 211.769 112.197 212.534 112.074 213.026C111.951 213.518 111.494 215.88 111.057 218.276C110.621 220.671 110.171 222.574 110.057 222.504C109.943 222.433 109.849 222.969 109.848 223.694C109.847 224.418 109.492 228.019 109.06 231.696C108.627 235.372 108.273 238.954 108.273 239.656C108.273 240.358 108.135 240.933 107.965 240.933C107.796 240.933 107.729 241.309 107.817 241.768C107.905 242.227 107.721 245.905 107.409 249.94C107.098 253.976 106.842 260.049 106.842 263.437C106.842 267.85 106.73 269.528 106.446 269.353C106.187 269.193 106.124 269.341 106.264 269.78C106.541 270.653 106.637 274.889 106.385 275.14C106.279 275.247 106.343 275.845 106.526 276.469C106.879 277.67 107.036 298.649 106.696 299.199C106.586 299.376 106.403 302.479 106.288 306.094C106.173 309.71 105.927 312.722 105.743 312.788C105.558 312.854 105.487 313.038 105.585 313.197C105.683 313.355 105.844 321.271 105.942 330.787C106.041 340.303 106.215 348.893 106.331 349.877C107.023 355.79 104.358 385.974 103.207 385.262C103.047 385.163 103.013 385.337 103.133 385.649C103.416 386.387 101.813 395.137 101.395 395.137C101.219 395.137 101.173 395.295 101.293 395.488C101.607 395.997 101.098 398.387 100.725 398.156C100.552 398.049 100.502 398.2 100.614 398.491C100.798 398.971 100.51 400.843 98.7617 410.521C97.9837 414.831 95.8817 421.944 95.1317 422.801C94.7837 423.199 94.6717 423.424 94.8847 423.301C95.1477 423.148 95.2207 423.677 95.1137 424.962C94.9927 426.425 95.2067 427.572 96.0697 430.086C97.3107 433.701 97.3567 433.927 96.7687 433.564C96.5107 433.405 96.4527 433.466 96.6147 433.728C96.7567 433.958 97.0027 434.067 97.1607 433.969C97.3187 433.871 97.7357 434.553 98.0877 435.484C98.4397 436.414 99.6927 439.189 100.872 441.648C102.052 444.108 103.019 446.322 103.021 446.568C103.024 446.814 103.15 447.015 103.301 447.015C103.664 447.015 109.013 457.588 108.798 457.88C108.706 458.004 108.735 458.029 108.861 457.936C109.056 457.791 113.282 464.346 113.282 464.793C113.282 464.877 113.097 464.831 112.869 464.691C112.611 464.532 112.553 464.593 112.715 464.855C112.858 465.085 113.111 465.189 113.279 465.085C113.653 464.854 116.013 468.44 115.847 468.985C115.781 469.2 115.843 469.261 115.983 469.12C116.362 468.741 117.666 470.551 117.365 471.038C117.218 471.276 117.262 471.359 117.469 471.231C117.958 470.929 120.185 473.748 119.865 474.265C119.715 474.508 119.77 474.577 120.001 474.435C120.47 474.144 121.572 475.607 121.262 476.109C121.142 476.304 121.207 476.362 121.408 476.238C121.921 475.921 123.073 477.284 122.743 477.817C122.582 478.078 122.623 478.16 122.847 478.022C123.235 477.782 126.767 481.659 126.61 482.153C126.561 482.308 126.667 482.395 126.847 482.346C127.391 482.197 132.273 486.752 132.015 487.169C131.881 487.386 131.942 487.452 132.157 487.32C132.662 487.008 138.389 491.706 138.091 492.188C137.959 492.401 138.029 492.458 138.253 492.32C138.469 492.187 141.352 493.986 144.658 496.32C147.965 498.653 151.838 501.338 153.265 502.285C154.691 503.232 155.858 504.154 155.858 504.334C155.858 504.513 155.991 504.578 156.152 504.479C156.314 504.379 156.998 504.639 157.673 505.057C160.757 506.968 164.265 508.796 168.47 510.682C170.978 511.808 172.91 512.862 172.763 513.024C172.616 513.186 172.673 513.218 172.89 513.094C173.107 512.971 174.798 513.35 176.647 513.938C180.222 515.074 186.306 516.425 187.847 516.425C188.357 516.425 188.774 516.545 188.774 516.693C188.773 517.035 199.456 516.607 200.372 516.229C200.891 516.014 200.985 516.06 200.763 516.419C200.548 516.767 200.604 516.807 200.973 516.569C201.556 516.194 206.229 514.536 209.346 513.599C210.988 513.105 211.701 512.664 212.387 511.72C212.879 511.042 213.91 509.851 214.676 509.073C216.093 507.636 219.544 502.654 219.544 502.046C219.544 501.863 219.69 501.804 219.868 501.914C220.046 502.024 220.108 501.792 220.005 501.398C219.902 501.004 219.971 500.682 220.158 500.682C220.345 500.682 220.514 500.481 220.533 500.235C220.553 499.989 220.993 498.258 221.512 496.389C222.132 494.153 222.517 491.704 222.637 489.233C222.738 487.167 222.91 485.235 223.02 484.94C223.131 484.645 223.251 484.162 223.287 483.867C223.324 483.571 223.703 482.283 224.13 481.004C225.329 477.411 231.043 449.479 231.722 443.891C232.451 437.899 232.547 426.221 231.927 419.223C231.253 411.625 231.199 409.376 231.708 410.163C232.22 410.955 232.14 410.427 231.567 409.235C230.936 407.919 230.433 398.643 230.522 389.949C230.817 361.09 230.789 358.105 230.178 353.097C229.842 350.342 229.401 344.949 229.2 341.112C228.998 337.274 228.511 332.122 228.117 329.663C227.723 327.203 227.159 323.178 226.864 320.718C226.193 315.132 225.445 311.325 224.306 307.703C223.818 306.153 223.498 304.583 223.595 304.214C223.691 303.845 223.64 303.624 223.481 303.722C223.126 303.942 222.337 301.798 222.61 301.357C222.718 301.183 222.657 301.04 222.476 301.04C221.291 301.04 220.595 270.628 221.661 265.441C222.362 262.036 223.211 259.551 223.595 259.788C223.79 259.908 223.835 259.824 223.697 259.6C223.293 258.947 224.188 257.531 224.614 258.147C224.862 258.505 224.896 258.426 224.739 257.864C224.594 257.346 224.716 256.977 225.106 256.759C225.427 256.579 225.676 256.285 225.658 256.106C225.64 255.927 225.773 255.781 225.954 255.781C226.134 255.781 226.416 255.634 226.58 255.455C226.753 255.266 226.691 255.237 226.431 255.387C226.185 255.528 225.984 255.493 225.984 255.309C225.984 254.797 226.909 254.142 227.209 254.442C227.355 254.588 227.421 254.466 227.355 254.171C227.284 253.85 227.494 253.633 227.877 253.631C228.23 253.629 228.635 253.438 228.779 253.206C229.039 252.785 230.723 252.024 231.395 252.024C231.59 252.024 231.636 252.21 231.495 252.437C231.332 252.701 231.398 252.753 231.677 252.58C231.917 252.432 232.022 252.218 231.909 252.106C231.797 251.993 232.838 251.542 234.223 251.103C235.608 250.663 237.716 249.724 238.906 249.015C240.096 248.306 241.243 247.832 241.454 247.962C241.674 248.098 241.733 248.031 241.592 247.804C241.312 247.35 242.574 246.551 242.961 246.938C243.102 247.079 243.163 247.033 243.098 246.836C243.032 246.639 243.139 246.405 243.336 246.316C243.533 246.226 244.235 245.502 244.895 244.706C246.302 243.011 246.601 242.713 246.2 243.403C246.003 243.744 246.044 243.822 246.328 243.647C246.558 243.504 246.651 243.233 246.534 243.044C246.417 242.855 246.777 242.166 247.333 241.514C247.89 240.861 249.052 239.336 249.917 238.126C250.781 236.915 251.707 235.924 251.974 235.924C252.241 235.924 252.46 235.766 252.46 235.573C252.46 235.067 255.3 233.692 255.884 233.916C256.155 234.02 256.501 233.896 256.654 233.641C257.66 231.961 268.091 231.494 275.006 232.82C286.46 235.017 295.988 234.956 300.493 232.658C301.244 232.275 302.054 232.073 302.293 232.211C302.532 232.348 302.608 232.328 302.461 232.167C302.095 231.762 304.609 230.104 305.115 230.416C305.365 230.571 305.423 230.508 305.266 230.255C305.126 230.027 305.153 229.841 305.326 229.841C305.499 229.841 306.292 229.284 307.089 228.602C307.885 227.92 308.639 227.437 308.763 227.528C308.887 227.62 308.914 227.593 308.823 227.469C308.551 227.1 309.353 225.868 309.718 226.093C309.908 226.211 309.952 226.034 309.819 225.687C309.646 225.237 309.71 225.151 310.057 225.366C310.359 225.552 310.445 225.52 310.294 225.276C310.164 225.065 310.235 224.436 310.451 223.879C310.668 223.321 310.951 221.416 311.08 219.645L311.315 216.425L314.266 214.942C315.89 214.126 317.223 213.563 317.229 213.69C317.235 213.816 317.405 213.636 317.607 213.289C317.81 212.941 318.92 212.18 320.075 211.597C321.23 211.014 322.278 210.37 322.405 210.166C322.531 209.961 322.788 209.889 322.976 210.005C323.164 210.122 323.282 210.084 323.238 209.922C323.1 209.415 325.331 206.232 325.633 206.506C325.791 206.648 325.799 206.556 325.652 206.3C325.504 206.045 325.566 205.076 325.789 204.147C326.17 202.558 326.518 194.305 326.189 194.633C325.936 194.886 324.707 189.635 324.901 189.129C325.011 188.841 324.921 188.758 324.667 188.916C324.391 189.086 324.327 188.975 324.476 188.588C324.599 188.267 324.533 187.901 324.329 187.775C324.125 187.648 324.058 187.147 324.18 186.66C324.317 186.114 324.266 185.859 324.047 185.994C323.851 186.115 323.523 185.59 323.318 184.827C323.113 184.065 322.473 182.738 321.896 181.879C321.319 181.02 320.928 180.186 321.027 180.026C321.126 179.865 321.074 179.764 320.912 179.8C320.324 179.931 319.374 179.31 319.601 178.944C319.729 178.737 319.672 178.668 319.474 178.79C319.104 179.019 317.576 177.806 317.576 177.283C317.576 177.121 318.042 175.858 318.611 174.477C322.611 164.778 318.546 159.549 308.252 161.151C305.315 161.608 300.802 160.874 301.327 160.025C301.429 159.86 301.258 159.822 300.947 159.942C300.278 160.198 296.109 159.334 296.109 158.938C296.109 158.788 295.886 158.751 295.613 158.856C294.765 159.181 290.012 157.355 286.27 155.267C282.444 153.132 279.915 152.203 277.928 152.203C276.403 152.203 273.926 151.489 273.926 151.049C273.926 150.87 273.584 150.832 273.166 150.965C272.658 151.126 272.486 151.076 272.648 150.814C272.793 150.579 272.693 150.498 272.397 150.612C271.548 150.937 269.978 150.147 270.22 149.516C270.353 149.17 270.264 148.994 269.99 149.058C269.061 149.274 268.436 146.237 268.869 143.611C269.361 140.631 270.667 137.11 271.166 137.418C271.377 137.549 271.424 137.468 271.275 137.228C270.978 136.748 271.353 135.302 271.716 135.527C271.849 135.609 271.982 135.33 272.01 134.906C272.039 134.482 272.663 132.203 273.397 129.841C275.571 122.845 275.272 117.451 272.466 113.034C271.844 112.055 271.304 111.044 271.267 110.788C271.229 110.532 271.081 110.334 270.938 110.348C270.795 110.363 269.759 109.551 268.635 108.546C267.511 107.54 265.675 106.102 264.554 105.35C263.433 104.598 262.628 103.871 262.765 103.734C262.902 103.597 262.853 103.53 262.656 103.586C261.99 103.773 260.675 103.14 260.917 102.748C261.06 102.517 260.99 102.464 260.745 102.615C260.187 102.96 255.99 101.048 256.279 100.581C256.408 100.372 256.331 100.322 256.098 100.466C255.61 100.768 249.156 97.7372 248.154 96.7352C247.767 96.3482 247.366 96.0382 247.263 96.0462C246.835 96.0802 244.997 94.8072 245.141 94.5752C245.226 94.4362 245.016 94.3452 244.674 94.3722C244.33 94.3992 244.096 94.2092 244.15 93.9472C244.204 93.6872 244.076 93.5802 243.865 93.7102C243.528 93.9192 238.864 91.1862 238.864 90.7802C238.864 90.6932 239.065 90.7432 239.311 90.8912C239.615 91.0732 239.601 90.9652 239.267 90.5542C238.736 89.8992 238.325 89.7242 238.685 90.3072C239.093 90.9662 238.489 90.6742 236.612 89.3032C235.588 88.5542 233.827 87.3712 232.699 86.6732C231.571 85.9752 230.766 85.2742 230.91 85.1142C231.054 84.9552 230.974 84.9382 230.733 85.0772C230.197 85.3852 226.594 83.0292 226.969 82.6152C227.116 82.4532 227.042 82.4322 226.804 82.5682C226.371 82.8172 219.914 79.7852 219.504 79.1402C219.383 78.9512 219.182 78.8102 219.056 78.8272C217.946 78.9762 217.847 78.8152 218.026 77.1582C218.26 74.9952 219.701 72.0622 220.534 72.0542C221.065 72.0502 221.077 71.9992 220.617 71.7022C220.147 71.3982 220.338 71.2022 221.022 71.2882C221.147 71.3032 221.227 71.0412 221.201 70.7042C221.175 70.3672 221.367 70.1362 221.627 70.1902C221.888 70.2442 222.002 70.1282 221.881 69.9322C221.76 69.7362 221.923 69.1742 222.245 68.6842C222.566 68.1942 223.27 66.6592 223.809 65.2742C224.348 63.8882 224.922 62.8762 225.086 63.0252C225.249 63.1732 225.282 63.1172 225.159 62.9012C225.035 62.6842 225.157 61.3162 225.429 59.8592C225.7 58.4032 226.192 55.0382 226.522 52.3822C226.851 49.7252 227.364 46.1032 227.661 44.3322C228.451 39.6252 227.764 36.2572 225.801 35.2062C225.324 34.9512 225.019 34.6062 225.123 34.4392C225.226 34.2722 225.261 34.1532 225.2 34.1762C225.139 34.1992 224.486 34.3342 223.749 34.4772" fill="#2aa7bc" fill-rule="evenodd" opacity="1" stroke="none" vectornator:layerName="path"/>
</g>
<g id="svgg-kopieren_2" vectornator:layerName="svgg kopieren">
<path d="M159.645 28.8699C158.183 29.1539 157.01 30.0279 156.675 31.0849C156.558 31.4549 156.308 31.6629 156.121 31.5479C155.933 31.4319 155.803 31.4699 155.831 31.6319C155.956 32.3529 155.768 32.8449 155.444 32.6449C155.249 32.5249 155.167 32.6359 155.261 32.8919C155.491 33.5169 150.288 39.8299 149.667 39.6789C149.398 39.6129 149.3 39.6809 149.448 39.8289C149.769 40.1499 148.665 41.4649 148.277 41.2249C148.128 41.1329 148.029 41.2799 148.056 41.5509C148.083 41.8229 146.576 43.6369 144.706 45.5839C140.879 49.5679 138.672 52.0439 138.612 52.4229C138.515 53.0319 132.419 60.8979 132.112 60.8089C131.926 60.7549 131.873 60.8719 131.994 61.0689C132.203 61.4059 130.944 63.4879 128.694 66.5289L127.712 67.8569L123.597 67.8709C118.138 67.8909 113.636 68.4619 110.359 69.5519C108.883 70.0429 107.405 70.4659 107.074 70.4909C106.744 70.5159 106.552 70.6639 106.648 70.8199C106.804 71.0719 105.993 71.2619 105.261 71.1459C105.113 71.1229 104.992 71.2429 104.992 71.4119C104.992 71.7389 101.649 74.2809 97.9542 76.7639C96.7392 77.5809 94.7342 79.3779 93.4982 80.7589C92.2622 82.1389 91.1412 83.2679 91.0072 83.2679C90.6502 83.2679 88.7822 75.5059 89.0392 75.0909C89.1592 74.8979 89.0242 74.5069 88.7412 74.2239C88.1252 73.6079 87.0462 69.6959 87.3552 69.1969C87.4852 68.9859 87.3832 68.9629 87.0982 69.1389C86.7512 69.3539 86.6872 69.2679 86.8592 68.8179C86.9892 68.4809 86.9632 68.2859 86.8022 68.3859C86.4462 68.6059 84.7092 63.0139 84.3822 60.5909C83.9262 57.2219 81.9982 56.6859 79.0442 59.1069C78.2142 59.7869 77.4252 60.2329 77.2912 60.0989C77.1572 59.9649 77.1422 60.1019 77.2582 60.4039C77.3822 60.7279 77.1342 61.2359 76.6512 61.6449L75.8332 62.3379L76.5462 61.4439L77.2592 60.5489L76.2782 61.4169C75.2982 62.2829 74.9772 62.7569 75.6542 62.3379C76.2172 61.9899 76.0952 62.2929 74.8082 64.4299C74.1462 65.5299 73.4762 66.3139 73.3192 66.1729C73.1632 66.0319 73.1502 66.1159 73.2912 66.3609C73.4352 66.6109 72.8592 68.1029 71.9772 69.7599C68.8682 75.6079 65.8252 85.6329 64.9022 93.0629C64.2252 98.5169 64.6602 117.184 65.5992 122.948L66.3232 127.386L65.4702 128.4C65.0002 128.957 63.7892 130.944 62.7782 132.814C61.7672 134.685 60.6962 136.458 60.4002 136.754C60.1032 137.051 59.9542 137.293 60.0682 137.293C60.1832 137.293 59.4472 138.944 58.4342 140.961C56.4802 144.851 53.5042 153.454 52.7712 157.329C52.5292 158.608 52.2402 159.896 52.1292 160.192C52.0182 160.487 51.9552 160.855 51.9892 161.01C52.0222 161.166 51.8922 162.293 51.6992 163.515C51.0362 167.723 50.5822 175.348 50.6552 181.091C50.8122 193.528 50.7382 195.281 49.8762 199.464C48.7812 204.777 48.7472 204.914 48.5082 204.914C48.3852 204.914 48.2632 205.277 48.2382 205.719C48.2132 206.162 48.0932 206.927 47.9702 207.419C47.8472 207.911 47.3902 210.273 46.9532 212.669C46.5172 215.064 46.0672 216.967 45.9532 216.897C45.8392 216.826 45.7452 217.362 45.7442 218.087C45.7432 218.811 45.3882 222.412 44.9562 226.089C44.5232 229.765 44.1692 233.347 44.1692 234.049C44.1692 234.751 44.0312 235.326 43.8612 235.326C43.6922 235.326 43.6252 235.702 43.7132 236.161C43.8012 236.62 43.6172 240.298 43.3052 244.333C42.9942 248.369 42.7382 254.442 42.7382 257.83C42.7382 262.243 42.6262 263.921 42.3422 263.746C42.0832 263.586 42.0202 263.734 42.1602 264.173C42.4372 265.046 42.5332 269.282 42.2812 269.533C42.1752 269.64 42.2392 270.238 42.4222 270.862C42.7752 272.063 42.9322 293.042 42.5922 293.592C42.4822 293.769 42.2992 296.872 42.1842 300.487C42.0692 304.103 41.8232 307.115 41.6392 307.181C41.4542 307.247 41.3832 307.431 41.4812 307.59C41.5792 307.748 41.7402 315.664 41.8382 325.18C41.9372 334.696 42.1112 343.286 42.2272 344.27C42.9192 350.183 40.2542 380.367 39.1032 379.655C38.9432 379.556 38.9092 379.73 39.0292 380.042C39.3122 380.78 37.7092 389.53 37.2912 389.53C37.1152 389.53 37.0692 389.688 37.1892 389.881C37.5032 390.39 36.9942 392.78 36.6212 392.549C36.4482 392.442 36.3982 392.593 36.5102 392.884C36.6942 393.364 36.4062 395.236 34.6582 404.914C33.8802 409.224 31.7782 416.337 31.0282 417.194C30.6802 417.592 30.5682 417.817 30.7812 417.694C31.0442 417.541 31.1172 418.07 31.0102 419.355C30.8892 420.818 31.1032 421.965 31.9662 424.479C33.2072 428.094 33.2532 428.32 32.6652 427.957C32.4072 427.798 32.3492 427.859 32.5112 428.121C32.6532 428.351 32.8992 428.46 33.0572 428.362C33.2152 428.264 33.6322 428.946 33.9842 429.877C34.3362 430.807 35.5892 433.582 36.7682 436.041C37.9482 438.501 38.9152 440.715 38.9172 440.961C38.9202 441.207 39.0462 441.408 39.1972 441.408C39.5602 441.408 44.9092 451.981 44.6942 452.273C44.6022 452.397 44.6312 452.422 44.7572 452.329C44.9522 452.184 49.1782 458.739 49.1782 459.186C49.1782 459.27 48.9932 459.224 48.7652 459.084C48.5072 458.925 48.4492 458.986 48.6112 459.248C48.7542 459.478 49.0072 459.582 49.1752 459.478C49.5492 459.247 51.9092 462.833 51.7432 463.378C51.6772 463.593 51.7392 463.654 51.8792 463.513C52.2582 463.134 53.5622 464.944 53.2612 465.431C53.1142 465.669 53.1582 465.752 53.3652 465.624C53.8542 465.322 56.0812 468.141 55.7612 468.658C55.6112 468.901 55.6662 468.97 55.8972 468.828C56.3662 468.537 57.4682 470 57.1582 470.502C57.0382 470.697 57.1032 470.755 57.3042 470.631C57.8172 470.314 58.9692 471.677 58.6392 472.21C58.4782 472.471 58.5192 472.553 58.7432 472.415C59.1312 472.175 62.6632 476.052 62.5062 476.546C62.4572 476.701 62.5632 476.788 62.7432 476.739C63.2872 476.59 68.1692 481.145 67.9112 481.562C67.7772 481.779 67.8382 481.845 68.0532 481.713C68.5582 481.401 74.2852 486.099 73.9872 486.581C73.8552 486.794 73.9252 486.851 74.1492 486.713C74.3652 486.58 77.2482 488.379 80.5542 490.713C83.8612 493.046 87.7342 495.731 89.1612 496.678C90.5872 497.625 91.7542 498.547 91.7542 498.727C91.7542 498.906 91.8872 498.971 92.0482 498.872C92.2102 498.772 92.8942 499.032 93.5692 499.45C96.6532 501.361 100.161 503.189 104.366 505.075C106.874 506.201 108.806 507.255 108.659 507.417C108.512 507.579 108.569 507.611 108.786 507.487C109.003 507.364 110.694 507.743 112.543 508.331C116.118 509.467 122.202 510.818 123.743 510.818C124.253 510.818 124.67 510.938 124.67 511.086C124.669 511.428 135.352 511 136.268 510.622C136.787 510.407 136.881 510.453 136.659 510.812C136.444 511.16 136.5 511.2 136.869 510.962C137.452 510.587 142.125 508.929 145.242 507.992C146.884 507.498 147.597 507.057 148.283 506.113C148.775 505.435 149.806 504.244 150.572 503.466C151.989 502.029 155.44 497.047 155.44 496.439C155.44 496.256 155.586 496.197 155.764 496.307C155.942 496.417 156.004 496.185 155.901 495.791C155.798 495.397 155.867 495.075 156.054 495.075C156.241 495.075 156.41 494.874 156.429 494.628C156.449 494.382 156.889 492.651 157.408 490.782C158.028 488.546 158.413 486.097 158.533 483.626C158.634 481.56 158.806 479.628 158.916 479.333C159.027 479.038 159.147 478.555 159.183 478.26C159.22 477.964 159.599 476.676 160.026 475.397C161.225 471.804 166.939 443.872 167.618 438.284C168.347 432.292 168.443 420.614 167.823 413.616C167.149 406.018 167.095 403.769 167.604 404.556C168.116 405.348 168.036 404.82 167.463 403.628C166.832 402.312 166.329 393.036 166.418 384.342C166.713 355.483 166.685 352.498 166.074 347.49C165.738 344.735 165.297 339.342 165.096 335.505C164.894 331.667 164.407 326.515 164.013 324.056C163.619 321.596 163.055 317.571 162.76 315.111C162.089 309.525 161.341 305.718 160.202 302.096C159.714 300.546 159.394 298.976 159.491 298.607C159.587 298.238 159.536 298.017 159.377 298.115C159.022 298.335 158.233 296.191 158.506 295.75C158.614 295.576 158.553 295.433 158.372 295.433C157.187 295.433 156.491 265.021 157.557 259.834C158.258 256.429 159.107 253.944 159.491 254.181C159.686 254.301 159.731 254.217 159.593 253.993C159.189 253.34 160.084 251.924 160.51 252.54C160.758 252.898 160.792 252.819 160.635 252.257C160.49 251.739 160.612 251.37 161.002 251.152C161.323 250.972 161.572 250.678 161.554 250.499C161.536 250.32 161.669 250.174 161.85 250.174C162.03 250.174 162.312 250.027 162.476 249.848C162.649 249.659 162.587 249.63 162.327 249.78C162.081 249.921 161.88 249.886 161.88 249.702C161.88 249.19 162.805 248.535 163.105 248.835C163.251 248.981 163.317 248.859 163.251 248.564C163.18 248.243 163.39 248.026 163.773 248.024C164.126 248.022 164.531 247.831 164.675 247.599C164.935 247.178 166.619 246.417 167.291 246.417C167.486 246.417 167.532 246.603 167.391 246.83C167.228 247.094 167.294 247.146 167.573 246.973C167.813 246.825 167.918 246.611 167.805 246.499C167.693 246.386 168.734 245.935 170.119 245.496C171.504 245.056 173.612 244.117 174.802 243.408C175.992 242.699 177.139 242.225 177.35 242.355C177.57 242.491 177.629 242.424 177.488 242.197C177.208 241.743 178.47 240.944 178.857 241.331C178.998 241.472 179.059 241.426 178.994 241.229C178.928 241.032 179.035 240.798 179.232 240.709C179.429 240.619 180.131 239.895 180.791 239.099C182.198 237.404 182.497 237.106 182.096 237.796C181.899 238.137 181.94 238.215 182.224 238.04C182.454 237.897 182.547 237.626 182.43 237.437C182.313 237.248 182.673 236.559 183.229 235.907C183.786 235.254 184.948 233.729 185.813 232.519C186.677 231.308 187.603 230.317 187.87 230.317C188.137 230.317 188.356 230.159 188.356 229.966C188.356 229.46 191.196 228.085 191.78 228.309C192.051 228.413 192.397 228.289 192.55 228.034C193.556 226.354 203.987 225.887 210.902 227.213C222.356 229.41 231.884 229.349 236.389 227.051C237.14 226.668 237.95 226.466 238.189 226.604C238.428 226.741 238.504 226.721 238.357 226.56C237.991 226.155 240.505 224.497 241.011 224.809C241.261 224.964 241.319 224.901 241.162 224.648C241.022 224.42 241.049 224.234 241.222 224.234C241.395 224.234 242.188 223.677 242.985 222.995C243.781 222.313 244.535 221.83 244.659 221.921C244.783 222.013 244.81 221.986 244.719 221.862C244.447 221.493 245.249 220.261 245.614 220.486C245.804 220.604 245.848 220.427 245.715 220.08C245.542 219.63 245.606 219.544 245.953 219.759C246.255 219.945 246.341 219.913 246.19 219.669C246.06 219.458 246.131 218.829 246.347 218.272C246.564 217.714 246.847 215.809 246.976 214.038L247.211 210.818L250.162 209.335C251.786 208.519 253.119 207.956 253.125 208.083C253.131 208.209 253.301 208.029 253.503 207.682C253.706 207.334 254.816 206.573 255.971 205.99C257.126 205.407 258.174 204.763 258.301 204.559C258.427 204.354 258.684 204.282 258.872 204.398C259.06 204.515 259.178 204.477 259.134 204.315C258.996 203.808 261.227 200.625 261.529 200.899C261.687 201.041 261.695 200.949 261.548 200.693C261.4 200.438 261.462 199.469 261.685 198.54C262.066 196.951 262.414 188.698 262.085 189.026C261.832 189.279 260.603 184.028 260.797 183.522C260.907 183.234 260.817 183.151 260.563 183.309C260.287 183.479 260.223 183.368 260.372 182.981C260.495 182.66 260.429 182.294 260.225 182.168C260.021 182.041 259.954 181.54 260.076 181.053C260.213 180.507 260.162 180.252 259.943 180.387C259.747 180.508 259.419 179.983 259.214 179.22C259.009 178.458 258.369 177.131 257.792 176.272C257.215 175.413 256.824 174.579 256.923 174.419C257.022 174.258 256.97 174.157 256.808 174.193C256.22 174.324 255.27 173.703 255.497 173.337C255.625 173.13 255.568 173.061 255.37 173.183C255 173.412 253.472 172.199 253.472 171.676C253.472 171.514 253.938 170.251 254.507 168.87C258.507 159.171 254.442 153.942 244.148 155.544C241.211 156.001 236.698 155.267 237.223 154.418C237.325 154.253 237.154 154.215 236.843 154.335C236.174 154.591 232.005 153.727 232.005 153.331C232.005 153.181 231.782 153.144 231.509 153.249C230.661 153.574 225.908 151.748 222.166 149.66C218.34 147.525 215.811 146.596 213.824 146.596C212.299 146.596 209.822 145.882 209.822 145.442C209.822 145.263 209.48 145.225 209.062 145.358C208.554 145.519 208.382 145.469 208.544 145.207C208.689 144.972 208.589 144.891 208.293 145.005C207.444 145.33 205.874 144.54 206.116 143.909C206.249 143.563 206.16 143.387 205.886 143.451C204.957 143.667 204.332 140.63 204.765 138.004C205.257 135.024 206.563 131.503 207.062 131.811C207.273 131.942 207.32 131.861 207.171 131.621C206.874 131.141 207.249 129.695 207.612 129.92C207.745 130.002 207.878 129.723 207.906 129.299C207.935 128.875 208.559 126.596 209.293 124.234C211.467 117.238 211.168 111.844 208.362 107.427C207.74 106.448 207.2 105.437 207.163 105.181C207.125 104.925 206.977 104.727 206.834 104.741C206.691 104.756 205.655 103.944 204.531 102.939C203.407 101.933 201.571 100.495 200.45 99.7429C199.329 98.9909 198.524 98.2639 198.661 98.1269C198.798 97.9899 198.749 97.9229 198.552 97.9789C197.886 98.1659 196.571 97.5329 196.813 97.1409C196.956 96.9099 196.886 96.8569 196.641 97.0079C196.083 97.3529 191.886 95.4409 192.175 94.9739C192.304 94.7649 192.227 94.7149 191.994 94.8589C191.506 95.1609 185.052 92.1299 184.05 91.1279C183.663 90.7409 183.262 90.4309 183.159 90.4389C182.731 90.4729 180.893 89.1999 181.037 88.9679C181.122 88.8289 180.912 88.7379 180.57 88.7649C180.226 88.7919 179.992 88.6019 180.046 88.3399C180.1 88.0799 179.972 87.9729 179.761 88.1029C179.424 88.3119 174.76 85.5789 174.76 85.1729C174.76 85.0859 174.961 85.1359 175.207 85.2839C175.511 85.4659 175.497 85.3579 175.163 84.9469C174.632 84.2919 174.221 84.1169 174.581 84.6999C174.989 85.3589 174.385 85.0669 172.508 83.6959C171.484 82.9469 169.723 81.7639 168.595 81.0659C167.467 80.3679 166.662 79.6669 166.806 79.5069C166.95 79.3479 166.87 79.3309 166.629 79.4699C166.093 79.7779 162.49 77.4219 162.865 77.0079C163.012 76.8459 162.938 76.8249 162.7 76.9609C162.267 77.2099 155.81 74.1779 155.4 73.5329C155.279 73.3439 155.078 73.2029 154.952 73.2199C153.842 73.3689 153.743 73.2079 153.922 71.5509C154.156 69.3879 155.597 66.4549 156.43 66.4469C156.961 66.4429 156.973 66.3919 156.513 66.0949C156.043 65.7909 156.234 65.5949 156.918 65.6809C157.043 65.6959 157.123 65.4339 157.097 65.0969C157.071 64.7599 157.263 64.5289 157.523 64.5829C157.784 64.6369 157.898 64.5209 157.777 64.3249C157.656 64.1289 157.819 63.5669 158.141 63.0769C158.462 62.5869 159.166 61.0519 159.705 59.6669C160.244 58.2809 160.818 57.2689 160.982 57.4179C161.145 57.5659 161.178 57.5099 161.055 57.2939C160.931 57.0769 161.053 55.7089 161.325 54.2519C161.596 52.7959 162.088 49.4309 162.418 46.7749C162.747 44.1179 163.26 40.4959 163.557 38.7249C164.347 34.0179 163.66 30.6499 161.697 29.5989C161.22 29.3439 160.915 28.9989 161.019 28.8319C161.122 28.6649 161.157 28.5459 161.096 28.5689C161.035 28.5919 160.382 28.7269 159.645 28.8699" fill="#000000" fill-rule="evenodd" opacity="1" stroke="none" vectornator:layerName="path"/>
</g>
</svg>
