<svg id="svg" version="1.1" xmlns="http://www.w3.org/2000/svg" xmlns:xlink="http://www.w3.org/1999/xlink" width="400" height="588.5509838998212" viewBox="0, 0, 400,588.5509838998212"><g id="svgg"><path id="path0" d="M227.819 46.496 C 226.357 46.780,225.184 47.654,224.849 48.711 C 224.732 49.081,224.482 49.289,224.295 49.174 C 224.107 49.058,223.977 49.096,224.005 49.258 C 224.130 49.979,223.942 50.471,223.618 50.271 C 223.423 50.151,223.341 50.262,223.435 50.518 C 223.665 51.143,218.462 57.456,217.841 57.305 C 217.572 57.239,217.474 57.307,217.622 57.455 C 217.943 57.776,216.839 59.091,216.451 58.851 C 216.302 58.759,216.203 58.906,216.230 59.177 C 216.257 59.449,214.750 61.263,212.880 63.210 C 209.053 67.194,206.846 69.670,206.786 70.049 C 206.689 70.658,200.593 78.524,200.286 78.435 C 200.100 78.381,200.047 78.498,200.168 78.695 C 200.377 79.032,199.118 81.114,196.868 84.155 L 195.886 85.483 191.771 85.497 C 186.312 85.517,181.810 86.088,178.533 87.178 C 177.057 87.669,175.579 88.092,175.248 88.117 C 174.918 88.142,174.726 88.290,174.822 88.446 C 174.978 88.698,174.167 88.888,173.435 88.772 C 173.287 88.749,173.166 88.869,173.166 89.038 C 173.166 89.365,169.823 91.907,166.128 94.390 C 164.913 95.207,162.908 97.004,161.672 98.385 C 160.436 99.765,159.315 100.894,159.181 100.894 C 158.824 100.894,156.956 93.132,157.213 92.717 C 157.333 92.524,157.198 92.133,156.915 91.850 C 156.299 91.234,155.220 87.322,155.529 86.823 C 155.659 86.612,155.557 86.589,155.272 86.765 C 154.925 86.980,154.861 86.894,155.033 86.444 C 155.163 86.107,155.137 85.912,154.976 86.012 C 154.620 86.232,152.883 80.640,152.556 78.217 C 152.100 74.848,150.172 74.312,147.218 76.733 C 146.388 77.413,145.599 77.859,145.465 77.725 C 145.331 77.591,145.316 77.728,145.432 78.030 C 145.556 78.354,145.308 78.862,144.825 79.271 L 144.007 79.964 144.720 79.070 L 145.433 78.175 144.452 79.043 C 143.472 79.909,143.151 80.383,143.828 79.964 C 144.391 79.616,144.269 79.919,142.982 82.056 C 142.320 83.156,141.650 83.940,141.493 83.799 C 141.337 83.658,141.324 83.742,141.465 83.987 C 141.609 84.237,141.033 85.729,140.151 87.386 C 137.042 93.234,133.999 103.259,133.076 110.689 C 132.399 116.143,132.834 134.810,133.773 140.574 L 134.497 145.012 133.644 146.026 C 133.174 146.583,131.963 148.570,130.952 150.440 C 129.941 152.311,128.870 154.084,128.574 154.380 C 128.277 154.677,128.128 154.919,128.242 154.919 C 128.357 154.919,127.621 156.570,126.608 158.587 C 124.654 162.477,121.678 171.080,120.945 174.955 C 120.703 176.234,120.414 177.522,120.303 177.818 C 120.192 178.113,120.129 178.481,120.163 178.636 C 120.196 178.792,120.066 179.919,119.873 181.141 C 119.210 185.349,118.756 192.974,118.829 198.717 C 118.986 211.154,118.912 212.907,118.050 217.090 C 116.955 222.403,116.921 222.540,116.682 222.540 C 116.559 222.540,116.437 222.903,116.412 223.345 C 116.387 223.788,116.267 224.553,116.144 225.045 C 116.021 225.537,115.564 227.899,115.127 230.295 C 114.691 232.690,114.241 234.593,114.127 234.523 C 114.013 234.452,113.919 234.988,113.918 235.713 C 113.917 236.437,113.562 240.038,113.130 243.715 C 112.697 247.391,112.343 250.973,112.343 251.675 C 112.343 252.377,112.205 252.952,112.035 252.952 C 111.866 252.952,111.799 253.328,111.887 253.787 C 111.975 254.246,111.791 257.924,111.479 261.959 C 111.168 265.995,110.912 272.068,110.912 275.456 C 110.912 279.869,110.800 281.547,110.516 281.372 C 110.257 281.212,110.194 281.360,110.334 281.799 C 110.611 282.672,110.707 286.908,110.455 287.159 C 110.349 287.266,110.413 287.864,110.596 288.488 C 110.949 289.689,111.106 310.668,110.766 311.218 C 110.656 311.395,110.473 314.498,110.358 318.113 C 110.243 321.729,109.997 324.741,109.813 324.807 C 109.628 324.873,109.557 325.057,109.655 325.216 C 109.753 325.374,109.914 333.290,110.012 342.806 C 110.111 352.322,110.285 360.912,110.401 361.896 C 111.093 367.809,108.428 397.993,107.277 397.281 C 107.117 397.182,107.083 397.356,107.203 397.668 C 107.486 398.406,105.883 407.156,105.465 407.156 C 105.289 407.156,105.243 407.314,105.363 407.507 C 105.677 408.016,105.168 410.406,104.795 410.175 C 104.622 410.068,104.572 410.219,104.684 410.510 C 104.868 410.990,104.580 412.862,102.832 422.540 C 102.054 426.850,99.952 433.963,99.202 434.820 C 98.854 435.218,98.742 435.443,98.955 435.320 C 99.218 435.167,99.291 435.696,99.184 436.981 C 99.063 438.444,99.277 439.591,100.140 442.105 C 101.381 445.720,101.427 445.946,100.839 445.583 C 100.581 445.424,100.523 445.485,100.685 445.747 C 100.827 445.977,101.073 446.086,101.231 445.988 C 101.389 445.890,101.806 446.572,102.158 447.503 C 102.510 448.433,103.763 451.208,104.942 453.667 C 106.122 456.127,107.089 458.341,107.091 458.587 C 107.094 458.833,107.220 459.034,107.371 459.034 C 107.734 459.034,113.083 469.607,112.868 469.899 C 112.776 470.023,112.805 470.048,112.931 469.955 C 113.126 469.810,117.352 476.365,117.352 476.812 C 117.352 476.896,117.167 476.850,116.939 476.710 C 116.681 476.551,116.623 476.612,116.785 476.874 C 116.928 477.104,117.181 477.208,117.349 477.104 C 117.723 476.873,120.083 480.459,119.917 481.004 C 119.851 481.219,119.913 481.280,120.053 481.139 C 120.432 480.760,121.736 482.570,121.435 483.057 C 121.288 483.295,121.332 483.378,121.539 483.250 C 122.028 482.948,124.255 485.767,123.935 486.284 C 123.785 486.527,123.840 486.596,124.071 486.454 C 124.540 486.163,125.642 487.626,125.332 488.128 C 125.212 488.323,125.277 488.381,125.478 488.257 C 125.991 487.940,127.143 489.303,126.813 489.836 C 126.652 490.097,126.693 490.179,126.917 490.041 C 127.305 489.801,130.837 493.678,130.680 494.172 C 130.631 494.327,130.737 494.414,130.917 494.365 C 131.461 494.216,136.343 498.771,136.085 499.188 C 135.951 499.405,136.012 499.471,136.227 499.339 C 136.732 499.027,142.459 503.725,142.161 504.207 C 142.029 504.420,142.099 504.477,142.323 504.339 C 142.539 504.206,145.422 506.005,148.728 508.339 C 152.035 510.672,155.908 513.357,157.335 514.304 C 158.761 515.251,159.928 516.173,159.928 516.353 C 159.928 516.532,160.061 516.597,160.222 516.498 C 160.384 516.398,161.068 516.658,161.743 517.076 C 164.827 518.987,168.335 520.815,172.540 522.701 C 175.048 523.827,176.980 524.881,176.833 525.043 C 176.686 525.205,176.743 525.237,176.960 525.113 C 177.177 524.990,178.868 525.369,180.717 525.957 C 184.292 527.093,190.376 528.444,191.917 528.444 C 192.427 528.444,192.844 528.564,192.844 528.712 C 192.843 529.054,203.526 528.626,204.442 528.248 C 204.961 528.033,205.055 528.079,204.833 528.438 C 204.618 528.786,204.674 528.826,205.043 528.588 C 205.626 528.213,210.299 526.555,213.416 525.618 C 215.058 525.124,215.771 524.683,216.457 523.739 C 216.949 523.061,217.980 521.870,218.746 521.092 C 220.163 519.655,223.614 514.673,223.614 514.065 C 223.614 513.882,223.760 513.823,223.938 513.933 C 224.116 514.043,224.178 513.811,224.075 513.417 C 223.972 513.023,224.041 512.701,224.228 512.701 C 224.415 512.701,224.584 512.500,224.603 512.254 C 224.623 512.008,225.063 510.277,225.582 508.408 C 226.202 506.172,226.587 503.723,226.707 501.252 C 226.808 499.186,226.980 497.254,227.090 496.959 C 227.201 496.664,227.321 496.181,227.357 495.886 C 227.394 495.590,227.773 494.302,228.200 493.023 C 229.399 489.430,235.113 461.498,235.792 455.910 C 236.521 449.918,236.617 438.240,235.997 431.242 C 235.323 423.644,235.269 421.395,235.778 422.182 C 236.290 422.974,236.210 422.446,235.637 421.254 C 235.006 419.938,234.503 410.662,234.592 401.968 C 234.887 373.109,234.859 370.124,234.248 365.116 C 233.912 362.361,233.471 356.968,233.270 353.131 C 233.068 349.293,232.581 344.141,232.187 341.682 C 231.793 339.222,231.229 335.197,230.934 332.737 C 230.263 327.151,229.515 323.344,228.376 319.722 C 227.888 318.172,227.568 316.602,227.665 316.233 C 227.761 315.864,227.710 315.643,227.551 315.741 C 227.196 315.961,226.407 313.817,226.680 313.376 C 226.788 313.202,226.727 313.059,226.546 313.059 C 225.361 313.059,224.665 282.647,225.731 277.460 C 226.432 274.055,227.281 271.570,227.665 271.807 C 227.860 271.927,227.905 271.843,227.767 271.619 C 227.363 270.966,228.258 269.550,228.684 270.166 C 228.932 270.524,228.966 270.445,228.809 269.883 C 228.664 269.365,228.786 268.996,229.176 268.778 C 229.497 268.598,229.746 268.304,229.728 268.125 C 229.710 267.946,229.843 267.800,230.024 267.800 C 230.204 267.800,230.486 267.653,230.650 267.474 C 230.823 267.285,230.761 267.256,230.501 267.406 C 230.255 267.547,230.054 267.512,230.054 267.328 C 230.054 266.816,230.979 266.161,231.279 266.461 C 231.425 266.607,231.491 266.485,231.425 266.190 C 231.354 265.869,231.564 265.652,231.947 265.650 C 232.300 265.648,232.705 265.457,232.849 265.225 C 233.109 264.804,234.793 264.043,235.465 264.043 C 235.660 264.043,235.706 264.229,235.565 264.456 C 235.402 264.720,235.468 264.772,235.747 264.599 C 235.987 264.451,236.092 264.237,235.979 264.125 C 235.867 264.012,236.908 263.561,238.293 263.122 C 239.678 262.682,241.786 261.743,242.976 261.034 C 244.166 260.325,245.313 259.851,245.524 259.981 C 245.744 260.117,245.803 260.050,245.662 259.823 C 245.382 259.369,246.644 258.570,247.031 258.957 C 247.172 259.098,247.233 259.052,247.168 258.855 C 247.102 258.658,247.209 258.424,247.406 258.335 C 247.603 258.245,248.305 257.521,248.965 256.725 C 250.372 255.030,250.671 254.732,250.270 255.422 C 250.073 255.763,250.114 255.841,250.398 255.666 C 250.628 255.523,250.721 255.252,250.604 255.063 C 250.487 254.874,250.847 254.185,251.403 253.533 C 251.960 252.880,253.122 251.355,253.987 250.145 C 254.851 248.934,255.777 247.943,256.044 247.943 C 256.311 247.943,256.530 247.785,256.530 247.592 C 256.530 247.086,259.370 245.711,259.954 245.935 C 260.225 246.039,260.571 245.915,260.724 245.660 C 261.730 243.980,272.161 243.513,279.076 244.839 C 290.530 247.036,300.058 246.975,304.563 244.677 C 305.314 244.294,306.124 244.092,306.363 244.230 C 306.602 244.367,306.678 244.347,306.531 244.186 C 306.165 243.781,308.679 242.123,309.185 242.435 C 309.435 242.590,309.493 242.527,309.336 242.274 C 309.196 242.046,309.223 241.860,309.396 241.860 C 309.569 241.860,310.362 241.303,311.159 240.621 C 311.955 239.939,312.709 239.456,312.833 239.547 C 312.957 239.639,312.984 239.612,312.893 239.488 C 312.621 239.119,313.423 237.887,313.788 238.112 C 313.978 238.230,314.022 238.053,313.889 237.706 C 313.716 237.256,313.780 237.170,314.127 237.385 C 314.429 237.571,314.515 237.539,314.364 237.295 C 314.234 237.084,314.305 236.455,314.521 235.898 C 314.738 235.340,315.021 233.435,315.150 231.664 L 315.385 228.444 318.336 226.961 C 319.960 226.145,321.293 225.582,321.299 225.709 C 321.305 225.835,321.475 225.655,321.677 225.308 C 321.880 224.960,322.990 224.199,324.145 223.616 C 325.300 223.033,326.348 222.389,326.475 222.185 C 326.601 221.980,326.858 221.908,327.046 222.024 C 327.234 222.141,327.352 222.103,327.308 221.941 C 327.170 221.434,329.401 218.251,329.703 218.525 C 329.861 218.667,329.869 218.575,329.722 218.319 C 329.574 218.064,329.636 217.095,329.859 216.166 C 330.240 214.577,330.588 206.324,330.259 206.652 C 330.006 206.905,328.777 201.654,328.971 201.148 C 329.081 200.860,328.991 200.777,328.737 200.935 C 328.461 201.105,328.397 200.994,328.546 200.607 C 328.669 200.286,328.603 199.920,328.399 199.794 C 328.195 199.667,328.128 199.166,328.250 198.679 C 328.387 198.133,328.336 197.878,328.117 198.013 C 327.921 198.134,327.593 197.609,327.388 196.846 C 327.183 196.084,326.543 194.757,325.966 193.898 C 325.389 193.039,324.998 192.205,325.097 192.045 C 325.196 191.884,325.144 191.783,324.982 191.819 C 324.394 191.950,323.444 191.329,323.671 190.963 C 323.799 190.756,323.742 190.687,323.544 190.809 C 323.174 191.038,321.646 189.825,321.646 189.302 C 321.646 189.140,322.112 187.877,322.681 186.496 C 326.681 176.797,322.616 171.568,312.322 173.170 C 309.385 173.627,304.872 172.893,305.397 172.044 C 305.499 171.879,305.328 171.841,305.017 171.961 C 304.348 172.217,300.179 171.353,300.179 170.957 C 300.179 170.807,299.956 170.770,299.683 170.875 C 298.835 171.200,294.082 169.374,290.340 167.286 C 286.514 165.151,283.985 164.222,281.998 164.222 C 280.473 164.222,277.996 163.508,277.996 163.068 C 277.996 162.889,277.654 162.851,277.236 162.984 C 276.728 163.145,276.556 163.095,276.718 162.833 C 276.863 162.598,276.763 162.517,276.467 162.631 C 275.618 162.956,274.048 162.166,274.290 161.535 C 274.423 161.189,274.334 161.013,274.060 161.077 C 273.131 161.293,272.506 158.256,272.939 155.630 C 273.431 152.650,274.737 149.129,275.236 149.437 C 275.447 149.568,275.494 149.487,275.345 149.247 C 275.048 148.767,275.423 147.321,275.786 147.546 C 275.919 147.628,276.052 147.349,276.080 146.925 C 276.109 146.501,276.733 144.222,277.467 141.860 C 279.641 134.864,279.342 129.470,276.536 125.053 C 275.914 124.074,275.374 123.063,275.337 122.807 C 275.299 122.551,275.151 122.353,275.008 122.367 C 274.865 122.382,273.829 121.570,272.705 120.565 C 271.581 119.559,269.745 118.121,268.624 117.369 C 267.503 116.617,266.698 115.890,266.835 115.753 C 266.972 115.616,266.923 115.549,266.726 115.605 C 266.060 115.792,264.745 115.159,264.987 114.767 C 265.130 114.536,265.060 114.483,264.815 114.634 C 264.257 114.979,260.060 113.067,260.349 112.600 C 260.478 112.391,260.401 112.341,260.168 112.485 C 259.680 112.787,253.226 109.756,252.224 108.754 C 251.837 108.367,251.436 108.057,251.333 108.065 C 250.905 108.099,249.067 106.826,249.211 106.594 C 249.296 106.455,249.086 106.364,248.744 106.391 C 248.400 106.418,248.166 106.228,248.220 105.966 C 248.274 105.706,248.146 105.599,247.935 105.729 C 247.598 105.938,242.934 103.205,242.934 102.799 C 242.934 102.712,243.135 102.762,243.381 102.910 C 243.685 103.092,243.671 102.984,243.337 102.573 C 242.806 101.918,242.395 101.743,242.755 102.326 C 243.163 102.985,242.559 102.693,240.682 101.322 C 239.658 100.573,237.897 99.390,236.769 98.692 C 235.641 97.994,234.836 97.293,234.980 97.133 C 235.124 96.974,235.044 96.957,234.803 97.096 C 234.267 97.404,230.664 95.048,231.039 94.634 C 231.186 94.472,231.112 94.451,230.874 94.587 C 230.441 94.836,223.984 91.804,223.574 91.159 C 223.453 90.970,223.252 90.829,223.126 90.846 C 222.016 90.995,221.917 90.834,222.096 89.177 C 222.330 87.014,223.771 84.081,224.604 84.073 C 225.135 84.069,225.147 84.018,224.687 83.721 C 224.217 83.417,224.408 83.221,225.092 83.307 C 225.217 83.322,225.297 83.060,225.271 82.723 C 225.245 82.386,225.437 82.155,225.697 82.209 C 225.958 82.263,226.072 82.147,225.951 81.951 C 225.830 81.755,225.993 81.193,226.315 80.703 C 226.636 80.213,227.340 78.678,227.879 77.293 C 228.418 75.907,228.992 74.895,229.156 75.044 C 229.319 75.192,229.352 75.136,229.229 74.920 C 229.105 74.703,229.227 73.335,229.499 71.878 C 229.770 70.422,230.262 67.057,230.592 64.401 C 230.921 61.744,231.434 58.122,231.731 56.351 C 232.521 51.644,231.834 48.276,229.871 47.225 C 229.394 46.970,229.089 46.625,229.193 46.458 C 229.296 46.291,229.331 46.172,229.270 46.195 C 229.209 46.218,228.556 46.353,227.819 46.496 " stroke="none" fill="#A4746D" fill-rule="evenodd"></path></g></svg>
